<?xml version="1.0" encoding="UTF-8"?>
<svg id="Ebene_1" xmlns="http://www.w3.org/2000/svg" viewBox="0 0 117 90" width="117"	height="90">
  <defs>
    <style>
      .cls-1 {
        fill: #c41239;
      }
    </style>
  </defs>
  <g>
    <path class="cls-1" d="M70.18,5.05c8.51,1.8,13.6,7.34,17.84,14.83,3.39,5.98,5.05,13.92,5.05,13.92-2.63-.77-11.93-2.94-11.96-3.03-.87-2.9-3.29-9.25-6.72-13.67-3.53-4.56-5.49-7.13-11.46-9.37-4.1-1.54-10.09-.56-10.1-.61,0-.04,8.74-3.89,17.34-2.07h0Z"/>
    <path class="cls-1" d="M65.76,1.92c-10.35-3.71-24.18-1.62-32.17,2.73-13.4,7.29-20.78,21.97-24.83,30.62-2,4.27-3.94,10.05-5.79,16.68C1.57,56.96,0,64.94,0,64.94l11.37,4.07s1.42-8.02,2.71-13.05c1.72-6.67,3.55-12.48,5.46-16.79,3.89-8.73,11.05-23.77,24.31-31.32,7.91-4.51,13.54-5.79,21.9-5.93h0Z"/>
    <g>
      <path class="cls-1" d="M43.31,58.96c-2.41,0-4.38-1.96-4.38-4.37s1.96-4.37,4.38-4.37,4.38,1.96,4.38,4.37-1.97,4.37-4.38,4.37ZM43.31,51.42c-1.75,0-3.17,1.42-3.17,3.16s1.42,3.16,3.17,3.16,3.17-1.42,3.17-3.16-1.42-3.16-3.17-3.16Z"/>
      <path class="cls-1" d="M69.01,58.96c-2.42,0-4.38-1.96-4.38-4.37s1.96-4.37,4.38-4.37,4.38,1.96,4.38,4.37-1.96,4.37-4.38,4.37ZM69.01,51.42c-1.75,0-3.17,1.42-3.17,3.16s1.42,3.16,3.17,3.16,3.17-1.42,3.17-3.16-1.42-3.16-3.17-3.16Z"/>
      <path class="cls-1" d="M106.59,69.11c-2.82,0-5.49-1.15-7.41-3.17-1.96,2.02-4.65,3.17-7.49,3.17-4.53,0-8.59-3.11-9.88-7.56-.01-.04-.02-.07-.03-.11-2.38,4.61-7.29,7.59-12.78,7.59-5.06,0-9.78-2.7-12.3-7.05-.19-.36-.36-.73-.51-1.09-2.35,4.93-7.33,8.15-12.89,8.15-5.06,0-9.77-2.7-12.3-7.05-.91-1.73-1.34-3.51-1.34-5.45v-25.08s10.77,0,10.77,0v12.97l1.89-3.93.36-.02c5.16-.22,10.01,2.41,12.68,6.72v-15.74s10.76,0,10.76,0v12.97l1.89-3.93.36-.02c5.69-.24,10.49,2.67,13.09,7.57l.02-6.48h10.77v15.65c0,.52.23,1.35.84,1.36.19.01.34-.06.48-.2.25-.24.41-.68.41-1.13v-15.69h10.49v15.65c0,.52.23,1.35.84,1.36.19.01.34-.06.48-.2.25-.24.41-.68.41-1.13v-15.69h10.76l.03,17.18c0,5.72-4.67,10.38-10.41,10.38ZM99.19,64.1l.46.56c1.71,2.07,4.24,3.25,6.94,3.25,5.07,0,9.2-4.11,9.2-9.17l-.02-15.96h-8.32v14.48c-.01.78-.3,1.52-.78,2-.38.36-.8.51-1.36.54-1.33-.03-2.02-1.32-2.02-2.58v-14.44h-8.06s0,14.48,0,14.48c0,.78-.29,1.52-.77,2-.38.36-.79.51-1.36.54-1.33-.03-2.02-1.32-2.02-2.58v-14.44h-8.35l-.02,8.3-1.19.18c-1.84-5.9-6.66-9.57-12.58-9.57h-.11l-2.73,5.68-1.15-.26v-14.43h-8.34v17.1s-1.16.22-1.16.22c-1.98-5.05-6.77-8.31-12.2-8.31h-.11l-2.73,5.68-1.15-.26v-14.43h-8.34v23.87c0,1.74.39,3.33,1.19,4.86,2.3,3.95,6.61,6.43,11.24,6.43,5.61,0,10.58-3.58,12.38-8.91l.68-2.01.49,2.06c.2.84.5,1.63.91,2.43,2.3,3.95,6.61,6.43,11.24,6.43,5.69,0,10.69-3.48,12.44-8.66l1.18.16c.04.73.17,1.23.36,1.89,1.14,3.94,4.73,6.69,8.71,6.69,2.71,0,5.27-1.19,7.03-3.25l.47-.55Z"/>
    </g>
  </g>
  <g>
    <path class="cls-1" d="M29.67,79.83v-1.64h1.43v1.64h-1.43ZM29.67,89.81v-8.42h1.43v8.42h-1.43Z"/>
    <path class="cls-1" d="M33.35,89.81v-8.42h1.29v1.2c.62-.93,1.51-1.39,2.68-1.39.51,0,.97.09,1.4.27.43.18.74.42.96.72s.36.65.44,1.05c.05.27.08.73.08,1.39v5.18h-1.43v-5.12c0-.58-.06-1.02-.17-1.3-.11-.29-.31-.52-.59-.69-.28-.17-.62-.26-1-.26-.61,0-1.13.19-1.58.58-.44.38-.66,1.12-.66,2.2v4.6h-1.43Z"/>
    <path class="cls-1" d="M45.59,88.53l.21,1.26c-.4.09-.76.13-1.08.13-.52,0-.92-.08-1.21-.24-.29-.16-.49-.38-.6-.65-.12-.27-.17-.83-.17-1.68v-4.84h-1.05v-1.11h1.05v-2.08l1.42-.86v2.94h1.44v1.11h-1.44v4.92c0,.41.02.67.08.78.05.12.13.21.25.28.11.07.28.1.49.1.16,0,.37-.02.63-.06Z"/>
    <path class="cls-1" d="M52.84,87.1l1.48.18c-.23.86-.66,1.53-1.29,2.01-.63.48-1.43.71-2.41.71-1.23,0-2.21-.38-2.93-1.14-.72-.76-1.08-1.82-1.08-3.19s.36-2.51,1.09-3.3,1.68-1.17,2.84-1.17,2.05.38,2.76,1.15,1.07,1.84,1.07,3.23c0,.09,0,.21,0,.38h-6.29c.05.92.31,1.63.79,2.12.47.49,1.06.74,1.76.74.52,0,.97-.14,1.34-.41.37-.27.66-.71.88-1.32ZM48.15,84.79h4.71c-.06-.71-.24-1.24-.54-1.59-.45-.55-1.04-.82-1.77-.82-.66,0-1.21.22-1.66.66-.45.44-.69,1.03-.74,1.76Z"/>
    <path class="cls-1" d="M56.17,89.81v-8.42h1.29v1.28c.33-.6.63-.99.91-1.18.28-.19.58-.28.92-.28.48,0,.97.15,1.47.46l-.49,1.32c-.35-.21-.7-.31-1.05-.31-.31,0-.59.09-.84.28-.25.19-.43.45-.53.78-.16.51-.24,1.06-.24,1.66v4.41h-1.43Z"/>
    <path class="cls-1" d="M61.68,89.81v-8.42h1.29v1.2c.62-.93,1.51-1.39,2.68-1.39.51,0,.97.09,1.4.27.43.18.74.42.96.72s.36.65.44,1.05c.05.27.08.73.08,1.39v5.18h-1.43v-5.12c0-.58-.06-1.02-.17-1.3s-.31-.52-.59-.69c-.28-.17-.61-.26-1-.26-.61,0-1.13.19-1.57.58-.44.38-.66,1.12-.66,2.2v4.6h-1.43Z"/>
    <path class="cls-1" d="M76.3,88.77c-.53.45-1.04.77-1.53.95-.49.19-1.02.28-1.58.28-.92,0-1.64-.23-2.14-.68-.5-.45-.75-1.03-.75-1.73,0-.41.1-.79.28-1.13.19-.34.43-.61.74-.82s.65-.36,1.03-.47c.28-.07.7-.14,1.27-.21,1.15-.14,2-.3,2.55-.49,0-.2,0-.32,0-.37,0-.58-.14-.99-.4-1.23-.37-.32-.91-.48-1.63-.48-.67,0-1.17.12-1.49.35-.32.24-.56.65-.71,1.25l-1.4-.19c.13-.6.34-1.08.63-1.45.29-.37.71-.65,1.26-.85.55-.2,1.19-.3,1.91-.3s1.31.08,1.75.25.78.38.99.64c.21.26.36.58.44.97.05.24.07.68.07,1.32v1.9c0,1.33.03,2.16.09,2.52.06.35.18.69.36,1.01h-1.49c-.15-.3-.24-.64-.29-1.04ZM76.18,85.58c-.52.21-1.3.39-2.33.54-.59.09-1,.18-1.25.28-.24.11-.43.26-.56.47-.13.2-.2.43-.2.68,0,.38.14.7.43.95.29.25.71.38,1.27.38s1.04-.12,1.47-.36.74-.57.94-.99c.15-.32.23-.8.23-1.43v-.52Z"/>
    <path class="cls-1" d="M83.04,88.53l.21,1.26c-.4.09-.76.13-1.08.13-.52,0-.92-.08-1.21-.24-.29-.16-.49-.38-.6-.65-.12-.27-.18-.83-.18-1.68v-4.84h-1.05v-1.11h1.05v-2.08l1.42-.86v2.94h1.44v1.11h-1.44v4.92c0,.41.03.67.08.78.05.12.13.21.24.28.11.07.28.1.49.1.16,0,.37-.02.63-.06Z"/>
    <path class="cls-1" d="M84.53,79.83v-1.64h1.43v1.64h-1.43ZM84.53,89.81v-8.42h1.43v8.42h-1.43Z"/>
    <path class="cls-1" d="M87.68,85.6c0-1.56.43-2.71,1.3-3.46.72-.62,1.61-.94,2.65-.94,1.16,0,2.1.38,2.84,1.14.73.76,1.1,1.81,1.1,3.14,0,1.08-.16,1.94-.49,2.56-.33.62-.8,1.1-1.42,1.45-.62.34-1.3.52-2.04.52-1.18,0-2.14-.38-2.86-1.13-.73-.75-1.09-1.84-1.09-3.27ZM89.15,85.6c0,1.08.24,1.88.71,2.42.47.54,1.06.8,1.78.8s1.3-.27,1.77-.81.71-1.36.71-2.46c0-1.04-.24-1.83-.71-2.37-.47-.54-1.06-.8-1.76-.8s-1.31.27-1.78.8c-.47.53-.71,1.34-.71,2.42Z"/>
    <path class="cls-1" d="M97.33,89.81v-8.42h1.29v1.2c.62-.93,1.51-1.39,2.68-1.39.51,0,.97.09,1.4.27.43.18.74.42.96.72s.36.65.44,1.05c.05.27.08.73.08,1.39v5.18h-1.43v-5.12c0-.58-.06-1.02-.17-1.3s-.31-.52-.59-.69c-.28-.17-.61-.26-1-.26-.61,0-1.13.19-1.57.58-.44.38-.66,1.12-.66,2.2v4.6h-1.43Z"/>
    <path class="cls-1" d="M111.96,88.77c-.53.45-1.04.77-1.53.95-.49.19-1.02.28-1.58.28-.92,0-1.64-.23-2.14-.68-.5-.45-.75-1.03-.75-1.73,0-.41.1-.79.28-1.13.19-.34.43-.61.74-.82s.65-.36,1.03-.47c.28-.07.7-.14,1.27-.21,1.15-.14,2-.3,2.55-.49,0-.2,0-.32,0-.37,0-.58-.14-.99-.4-1.23-.37-.32-.91-.48-1.63-.48-.67,0-1.17.12-1.49.35-.32.24-.56.65-.71,1.25l-1.4-.19c.13-.6.34-1.08.63-1.45.29-.37.71-.65,1.26-.85.55-.2,1.19-.3,1.91-.3s1.31.08,1.75.25.78.38.99.64c.21.26.36.58.44.97.05.24.07.68.07,1.32v1.9c0,1.33.03,2.16.09,2.52.06.35.18.69.36,1.01h-1.49c-.15-.3-.24-.64-.29-1.04ZM111.84,85.58c-.52.21-1.3.39-2.33.54-.59.09-1,.18-1.25.28-.24.11-.43.26-.56.47-.13.2-.2.43-.2.68,0,.38.14.7.43.95.29.25.71.38,1.27.38s1.04-.12,1.47-.36.74-.57.94-.99c.15-.32.23-.8.23-1.43v-.52Z"/>
    <path class="cls-1" d="M115.54,89.81v-11.62h1.43v11.62h-1.43Z"/>
  </g>
</svg>
