<svg preserveAspectRatio="none" width="100%" height="100%" overflow="visible" style="display: block;" viewBox="0 0 423.917 90.2386" fill="none" xmlns="http://www.w3.org/2000/svg">
<g id="logo texte">
<path id="Vector" d="M394.418 70.2351C390.678 63.6489 387.034 58.0817 382.765 51.7097C382.457 53.1379 378.45 70.0318 377.505 70.2131C375.831 70.5344 365.102 70.5482 363.092 70.5344C361.711 70.5235 360.186 70.6086 360.515 69.2271L375.852 2.53297C376.758 0.646104 394.104 0.209405 394.065 1.05259C391.173 10.0859 390.143 19.6494 387.457 28.7047C387.394 28.9162 386.445 32.407 386.385 32.6185C385.886 34.4093 385.33 36.9745 384.59 39.1113L388.608 36.4966L404.99 21.5775C407.477 20.9348 410.196 20.6793 412.662 20.5448C414.139 20.4651 415.674 20.4733 417.134 20.5448C419.176 20.6436 420.575 20.8276 423.917 21.2451L398.573 44.1677L413.722 70.2351H394.418Z" fill="var(--fill-0, #4D9538)"/>
<path id="Vector_2" d="M326.678 21.2368C328.986 21.8767 326.542 26.2437 327.049 27.8587C333.836 22.8957 341.015 19.5532 350.003 20.5611C353.65 20.9704 358.723 23.4258 359.155 26.7656C360.584 37.8121 353.717 56.2579 351.366 67.5653C351.318 67.7933 351.263 68.013 351.2 68.2355L350.789 69.639C348.789 71.0809 337.609 70.3805 334.585 70.2267C335.531 66.2855 336.537 62.1684 337.452 58.1832C338.764 52.4621 342.749 40.1522 340.767 34.9145C339.356 31.1902 331.66 33.4039 329.273 35.5105C325.209 39.0948 319.713 60.3969 318.191 68.3289C318.082 68.8892 317.913 69.8944 317.861 70.1059L301.552 70.2322L311.749 21.234C315.565 21.8932 323.466 20.3414 326.681 21.234L326.678 21.2368Z" fill="var(--fill-0, #4D9538)"/>
<path id="Vector_3" d="M223.608 70.2349L239.328 1.29688C245.416 0.0911555 251.628 -0.112089 257.843 0.0472101L244.73 58.3177H272.41C271.129 62.3524 269.781 66.6644 268.403 70.2349H223.608Z" fill="var(--fill-0, #4D9538)"/>
<path id="Vector_4" d="M161.695 21.2339C157.589 20.7725 153.377 20.0941 149.721 20.6049C147.398 20.929 145.739 23.129 144.709 23.1345C143.972 23.1372 141.823 21.1625 140.032 20.7313C115.114 14.7246 93.6316 39.4434 100.508 60.3006C103.131 68.2655 108.811 72.1739 118.259 71.4707C121.528 71.2318 124.692 69.9327 127.46 68.2463C130.209 66.3787 132.871 64.7115 134.735 63.6102C135.602 68.3507 140.542 71.5174 145.785 70.9516C148.205 70.6907 150.667 70.0123 152.879 69.5097C152.272 67.7327 152.027 65.736 151.824 63.6404C151.592 61.2289 151.755 58.8037 152.299 56.4335C153 53.3683 153.879 49.9928 154.619 46.9167C155.523 43.1759 157.139 38.732 157.991 35.958C158.553 34.1508 161.493 22.3352 161.692 21.2311L161.695 21.2339ZM132.874 55.6205C132.224 56.428 130.315 58.0374 128.931 59.1498C127.689 60.1495 126.121 60.7922 124.462 60.8224C118.169 60.9433 116.691 53.816 117.265 48.3834C117.915 42.2256 122.634 33.6317 129.146 31.05C132.415 29.7509 141.258 29.8058 141.135 34.03C141.092 35.7438 137.581 46.2466 136.678 48.4905C135.781 50.7289 134.406 53.7144 132.877 55.6205H132.874Z" fill="var(--fill-0, #4D9538)"/>
<path id="Vector_5" d="M219.508 27.9384C212.981 15.9937 195.397 18.5562 186.81 27.1968C186.066 25.873 185.024 22.1789 184.58 20.6546L169.654 21.528C169.557 22.6651 169.107 26.3097 168.787 28.0236C167.261 36.1039 164.814 44.9477 163.076 53.2752C162.916 54.047 162.726 54.8133 162.508 55.5741C160.816 61.4626 159.369 67.1507 158.043 72.8827C156.716 78.5845 155.166 84.2973 154.393 90.098C155.085 90.7325 169.908 89.0708 171.473 88.0711C173.147 86.9917 173.482 80.4906 174.065 78.178C174.787 75.3299 175.425 72.7674 176.25 69.5704C179.824 70.3861 183.695 71.4902 187.517 71.5891C198.08 71.861 206.434 67.0326 212.667 59.6389C219.426 51.6273 224.686 37.4057 219.499 27.9357L219.508 27.9384ZM184.683 61.5862C177.144 60.592 178.718 57.0737 179.579 52.9951C181.181 45.3597 182.229 39.4244 189.112 33.9149C193.78 30.1796 201.962 29.2128 203.156 36.1725C204.059 41.4294 201.772 48.7984 199.506 53.6597C199.34 54.0113 198.947 54.6018 198.72 54.9039C198.536 55.1511 197.989 55.7608 197.762 55.975C193.683 59.779 191.735 62.52 184.683 61.5862Z" fill="var(--fill-0, #4D9538)"/>
<path id="Vector_6" d="M31.6469 19.8856C15.7813 20.6931 2.94931 32.3082 0.719493 46.3979C0.683236 46.6176 0.562381 47.0461 0.514038 47.2631L0.507989 47.2878C0.103117 49.0675 -0.0811837 50.8885 0.0336308 52.7039C0.423396 58.8342 2.79824 63.9977 8.77766 67.8786C16.2587 72.7317 32.8525 71.7127 40.9378 68.0571C42.1252 67.5215 45.4095 65.7582 45.5908 64.6349C45.6573 64.2119 44.062 56.2223 43.639 56.3843C41.4968 57.2055 40.9167 57.5049 39.9166 57.9828C33.8405 60.8831 24.6462 62.6244 20.0627 57.3044C19.2771 56.3925 18.8813 55.2527 18.8209 54.0937C18.7424 52.5913 18.7061 50.6523 18.969 50.4051C19.3708 50.0288 25.7944 49.7706 27.1208 49.5454C35.9404 48.0293 38.7563 47.2521 45.3733 42.4264C45.902 42.0392 47.3161 40.6576 48.1711 39.9188C48.6123 39.5398 50.2952 37.8754 51.7364 35.0739C57.7702 23.338 42.4606 19.339 31.6499 19.8883L31.6469 19.8856ZM34.0006 37.5898C31.3568 40.2512 23.483 41.6354 19.6669 42.4237C20.8181 36.5186 25.1236 27.5457 33.07 28.5509C38.3938 29.2266 36.457 35.1261 34.0036 37.5898H34.0006Z" fill="var(--fill-0, #4D9538)"/>
<path id="Vector_7" d="M303.002 20.5723L292.158 69.1722C291.369 70.2049 276.951 71.2294 274.658 70.1802L285.438 21.6187L303.002 20.5695V20.5723Z" fill="var(--fill-0, #4D9538)"/>
<path id="Vector_8" d="M96.9037 31.5115C88.9121 30.4266 80.9294 29.4983 75.2189 35.7494C72.1521 39.1002 71.9225 39.8143 70.575 42.8986C70.3816 43.3436 70.019 44.986 69.9314 45.4749C69.7984 46.2714 69.7622 48.0813 69.8075 49.6853C69.8438 50.9982 70.1459 52.2945 70.6807 53.514C73.11 59.0592 75.5936 61.586 83.9478 60.1469C86.0236 59.7898 92.3595 56.2331 92.8429 56.3264C93.7312 56.4857 94.8673 63.4839 94.7072 64.5688C94.124 68.6089 80.7451 71.3225 76.8324 71.5422C67.9735 72.0394 58.6645 68.7435 53.8936 60.9626C52.9932 59.6525 52.7425 59.1087 52.3799 58.0348C44.0166 33.3791 74.4273 12.2748 100.572 22.3051C100.813 23.357 97.8555 31.0199 96.9068 31.5087L96.9037 31.5115Z" fill="var(--fill-0, #4D9538)"/>
<path id="Vector_9" d="M288.641 13.7662C288.197 13.3625 287.257 11.4042 287.139 10.8109C284.913 -0.636629 312.145 -1.98792 306.821 9.81395C304.479 15.0076 292.747 17.507 288.641 13.769V13.7662Z" fill="var(--fill-0, #4D9538)"/>
</g>
</svg>
