<svg preserveAspectRatio="none" width="100%" height="100%" overflow="visible" style="display: block;" viewBox="0 0 134.526 128.029" fill="none" xmlns="http://www.w3.org/2000/svg">
<g id="Group">
<path id="Vector" d="M68.505 80.6161C82.5879 96.1862 99.8735 110.227 121.123 117.027L131.487 120.032C113.757 120.49 97.2177 113.915 82.7843 105.173C70.2725 97.5925 59.628 87.8697 47.926 79.3582C47.4486 78.4766 48.1647 74.6452 49.1708 74.2057C60.8154 74.2579 78.1101 73.3708 82.8054 61.5909C88.7728 46.625 64.6315 42.3184 53.3011 44.5624C51.7179 44.8755 50.5365 45.1941 49.6663 46.5316C46.3156 56.0264 44.5631 65.9826 41.5749 75.5845C31.0573 67.7156 22.0112 58.3143 14.4153 48.0422C11.1793 43.667 8.58994 38.8578 4.69833 34.9055C11.5086 52.2856 25.3015 66.9329 40.3271 78.9764C56.5643 91.995 75.4331 107.818 95.3927 115.552C107.88 120.391 120.906 122.493 134.526 121.787L130.728 123.479C96.553 133.962 63.4743 126.09 39.2182 102.33C18.7359 82.2668 7.07318 56.2269 0 29.8821C0.226608 29.7118 4.12426 31.6756 4.78595 31.9311C20.8811 38.1684 42.8832 35.908 60.3532 36.9133C75.7474 37.7976 111.032 42.6535 105.944 63.2855C102.457 77.4329 81.9534 80.8633 68.505 80.6051V80.6161Z" fill="var(--fill-0, #4D9538)"/>
<path id="Vector_2" d="M132.59 25.1198L121.791 52.9669L111.228 52.9532C109.122 49.7645 106.959 46.8037 103.868 44.3263C98.2299 39.8083 91.0388 37.3364 83.8206 35.683C75.5933 25.6197 66.7616 4.21044 52.4249 0.692126L48.8959 0.0137314L86.0595 0C96.8128 0.516349 100.849 3.19148 106.466 11.0795C111.15 17.6602 115.34 24.5568 120.023 31.143L132.59 25.1198Z" fill="var(--fill-0, #4D9538)"/>
<path id="Vector_3" d="M16.2976 32.1482C16.1858 32.0575 17.4457 30.0169 17.63 29.7202C21.6334 23.2631 26.0719 16.2073 30.4379 9.9754C33.2539 5.95722 35.9973 2.79596 41.4299 1.63692C54.5097 -1.15356 62.9757 9.28602 68.1726 18.5034L59.205 31.8571C57.4737 31.8983 55.7213 31.9532 53.99 31.9092C53.3373 31.8928 52.7331 31.6483 52.0804 31.6373C40.1246 31.4396 28.2262 31.8571 16.2976 32.1482Z" fill="var(--fill-0, #4D9538)"/>
</g>
</svg>
